<?xml version="1.0" standalone="no"?>
<!DOCTYPE svg PUBLIC "-//W3C//DTD SVG 1.1//EN"
  "http://www.w3.org/Graphics/SVG/1.1/DTD/svg11.dtd">
<svg width="54.678001403808594mm" height="79.93866539001462mm" viewBox="-92.54000091552734 -104.21866607666013 54.678001403808594 79.93866539001462" xmlns="http://www.w3.org/2000/svg" version="1.1">
	<title>svgOutput</title>
	<desc>made with tinkercad</desc>
<path d="M -38.86199951171875 -103.21866607666013 L -38.86199951171875 -98.30400085449216 L -38.86199951171875 -90.11199951171874 L -38.86199951171875 -81.9199981689453 L -38.86199951171875 -80.42299652099608 L -40.959999084472656 -80.42299652099608 L -43.018001556396484 -80.42299652099608 L -43.018001556396484 -81.9199981689453 L -43.018001556396484 -90.11199951171874 L -43.018001556396484 -98.30400085449216 L -43.018001556396484 -103.21866607666013 L -40.959999084472656 -103.21866607666013 L -38.86199951171875 -103.21866607666013 M -46.04199981689453 -103.21866607666013 L -46.04199981689453 -98.30400085449216 L -46.04199981689453 -90.11199951171874 L -46.04199981689453 -81.9199981689453 L -46.04199981689453 -80.42299652099608 L -49.152000427246094 -80.42299652099608 L -50.198001861572266 -80.42299652099608 L -50.198001861572266 -81.9199981689453 L -50.198001861572266 -86.01599884033202 L -50.198001861572266 -90.11199951171874 L -50.198001861572266 -92.16000366210936 L -50.198001861572266 -94.20800018310545 L -50.198001861572266 -98.30400085449216 L -50.198001861572266 -103.21866607666013 L -49.152000427246094 -103.21866607666013 L -46.04199981689453 -103.21866607666013 M -55.2686653137207 -96.35166931152341 L -55.143375396728516 -96.25599670410153 L -55.06566619873047 -96.196662902832 L -54.673221588134766 -95.89683532714842 L -54.67300033569336 -95.89666748046874 L -54.50199890136719 -95.70666503906249 L -54.17151641845703 -95.33960723876952 L -54.1706657409668 -95.33866882324217 L -54.10281753540039 -95.23200225830077 L -54.034332275390625 -95.12433624267577 L -53.7696647644043 -94.70899963378905 L -53.667667388916016 -94.47366333007811 L -53.55281448364258 -94.20800018310545 L -53.470706939697266 -94.01807403564452 L -53.46966552734375 -94.01566314697264 L -53.395668029785156 -93.75233459472655 L -53.25033187866211 -93.23766326904295 L -53.24800109863281 -93.22210693359374 L -53.207000732421875 -92.94866943359374 L -53.12233352661133 -92.38133239746092 L -53.112449645996094 -92.16000366210936 L -53.108665466308594 -92.07533264160155 L -53.082000732421875 -91.47000122070311 L -53.082000732421875 -90.11199951171874 L -53.082000732421875 -86.01599884033202 L -53.082000732421875 -81.9199981689453 L -53.082000732421875 -80.42299652099608 L -53.24800109863281 -80.42299652099608 L -55.29600143432617 -80.42299652099608 L -56.31999969482422 -80.42299652099608 L -56.39500045776367 -80.42299652099608 L -56.51093292236328 -80.89600372314452 L -56.58898162841797 -81.21444702148436 L -56.589115142822266 -81.21499633789061 L -56.66607666015625 -81.52899169921874 L -56.666107177734375 -81.52911376953124 L -56.67776107788086 -81.57666778564452 L -56.67792510986328 -81.57733917236327 L -56.68777847290039 -81.61753845214842 L -56.75600051879883 -81.55533599853514 L -56.992000579833984 -81.33999633789061 L -57.124332427978516 -81.23999786376952 L -57.34400177001953 -81.0743942260742 L -57.37907028198242 -81.04795837402342 L -57.38166809082031 -81.04599761962889 L -57.52866744995117 -80.95532989501952 L -57.62449645996094 -80.89600372314452 L -57.81399917602539 -80.77866363525389 L -57.96733474731445 -80.71099853515624 L -58.263999938964844 -80.58032989501952 L -58.36800003051758 -80.54507446289061 L -58.42033386230469 -80.52733612060545 L -58.72566604614258 -80.4240036010742 L -58.89099884033203 -80.38233184814452 L -59.21116638183594 -80.30179595947264 L -59.214332580566406 -80.30100250244139 L -59.38833236694336 -80.27100372314452 L -59.391998291015625 -80.27036285400389 L -59.72966766357422 -80.21166992187499 L -59.91866683959961 -80.19400024414061 L -60.290000915527344 -80.15933227539061 L -60.41600036621094 -80.15565490722655 L -60.49566650390625 -80.15333557128905 L -60.89830780029297 -80.14203643798827 L -60.89966583251953 -80.14199829101561 L -61.12900161743164 -80.15399932861327 L -61.439998626708984 -80.17012786865233 L -61.57899856567383 -80.17733001708983 L -61.80366516113281 -80.21433258056639 L -62.23980712890625 -80.28658294677733 L -62.242332458496094 -80.28700256347655 L -62.45166778564453 -80.34799957275389 L -62.4640007019043 -80.35157775878905 L -62.861000061035156 -80.46666717529295 L -63.06666564941406 -80.54599761962889 L -63.46525573730469 -80.70011901855467 L -63.46666717529297 -80.70066833496092 L -63.487998962402344 -80.71321868896483 L -63.66266632080078 -80.81600189208983 L -63.798954010009766 -80.89600372314452 L -64.04199981689453 -81.03866577148436 L -64.211669921875 -81.18166351318358 L -64.51200103759766 -81.43560791015624 L -64.5387191772461 -81.45819854736327 L -64.53966522216797 -81.45899963378905 L -64.68966674804688 -81.62400054931639 L -64.95915222167969 -81.9199981689453 L -64.98054504394531 -81.94350433349608 L -64.98100280761719 -81.94400024414061 L -65.10733032226562 -82.13800048828124 L -65.35199737548828 -82.51333618164061 L -65.45166778564453 -82.7296676635742 L -65.53600311279297 -82.9131622314453 L -65.64433288574219 -83.1488800048828 L -65.6449966430664 -83.15032958984374 L -65.7163314819336 -83.38899993896483 L -65.85566711425781 -83.85366821289061 L -65.87415313720703 -83.96800231933592 L -65.89733123779297 -84.11133575439452 L -65.97866821289062 -84.61533355712889 L -65.99266815185547 -84.90233612060545 L -65.99703979492188 -84.9919967651367 L -66.0199966430664 -85.46299743652342 L -65.9530029296875 -85.99600219726561 L -65.95048522949219 -86.01599884033202 L -65.82174682617188 -87.04000091552733 L -65.82166290283203 -87.04066467285155 L -65.60633087158203 -87.51266479492186 L -65.53600311279297 -87.66679382324217 L -65.35474395751953 -88.06400299072264 L -65.18843841552734 -88.42843627929686 L -65.1883316040039 -88.4286651611328 L -64.83000183105469 -88.8026657104492 L -64.55670928955078 -89.08799743652342 L -64.13400268554688 -89.52933502197264 L -63.65366744995117 -89.79733276367186 L -63.487998962402344 -89.88969421386717 L -63.089271545410156 -90.11199951171874 L -62.78561019897461 -90.28129577636717 L -62.71500015258789 -90.32066345214842 L -62.12666702270508 -90.48433685302733 L -61.439998626708984 -90.67527008056639 L -60.969913482666016 -90.8059844970703 L -60.968666076660156 -90.80633544921874 L -60.285667419433594 -90.8766632080078 L -59.391998291015625 -90.96897888183592 L -58.93033218383789 -91.01667022705077 L -58.39533233642578 -91.03833007812499 L -57.34400177001953 -91.08072662353514 L -57.28300094604492 -91.0831832885742 L -57.237998962402344 -91.08499908447264 L -57.237998962402344 -91.13600158691405 L -57.237998962402344 -91.15184783935545 L -57.237998962402344 -91.15954589843749 L -57.237998962402344 -91.17366790771483 L -57.237998962402344 -91.17600250244139 L -57.24399948120117 -91.34733581542967 L -57.25600051879883 -91.69466400146483 L -57.25718307495117 -91.70477294921874 L -57.272335052490234 -91.83433532714842 L -57.306331634521484 -92.1230010986328 L -57.314659118652344 -92.16000366210936 L -57.32027816772461 -92.18497467041014 L -57.3215446472168 -92.19061279296874 L -57.3303337097168 -92.2296676635742 L -57.34400177001953 -92.28965759277342 L -57.378509521484375 -92.44113922119139 L -57.37866973876953 -92.44184112548827 L -57.38124465942383 -92.45314788818358 L -57.38166809082031 -92.45500183105467 L -57.413665771484375 -92.53233337402342 L -57.4778938293457 -92.68919372558592 L -57.478477478027344 -92.6906280517578 L -57.48294448852539 -92.70153045654295 L -57.483001708984375 -92.70166778564452 L -57.520668029785156 -92.76399993896483 L -57.57902908325195 -92.8606491088867 L -57.604000091552734 -92.90200042724608 L -57.64966583251953 -92.95433044433592 L -57.7501335144043 -93.06943511962889 L -57.75033187866211 -93.06966400146483 L -57.79966735839844 -93.11266326904295 L -57.88140106201172 -93.18399810791014 L -57.88621139526367 -93.18819427490233 L -57.8896369934082 -93.19118499755858 L -57.90958786010742 -93.20860290527342 L -57.90966796875 -93.20866394042967 L -57.9630012512207 -93.23999786376952 L -58.04302978515625 -93.28704833984374 L -58.04869079589844 -93.29037475585936 L -58.08433151245117 -93.3113327026367 L -58.15733337402344 -93.33866882324217 L -58.316123962402344 -93.39779663085936 L -58.31666564941406 -93.3980026245117 L -58.36800003051758 -93.41007995605467 L -58.40733337402344 -93.41933441162108 L -58.5178337097168 -93.44542694091795 L -58.526973724365234 -93.44757843017577 L -58.599334716796875 -93.46466827392577 L -58.707332611083984 -93.47866821289061 L -58.86373519897461 -93.49862670898436 L -58.86408996582031 -93.49866485595702 L -58.930015563964844 -93.50708007812499 L -58.93199920654297 -93.50733184814452 L -59.05400085449219 -93.51200103759764 L -59.305999755859375 -93.52200317382811 L -59.391998291015625 -93.51782226562499 L -59.51426315307617 -93.51187896728514 L -59.5186653137207 -93.51166534423827 L -59.520713806152344 -93.51156616210936 L -59.952388763427734 -93.49037933349608 L -59.95333480834961 -93.49033355712889 L -60.1510009765625 -93.45999908447264 L -60.41600036621094 -93.41946411132811 L -60.556331634521484 -93.3980026245117 L -60.585689544677734 -93.3900680541992 L -60.605010986328125 -93.38484954833983 L -60.746334075927734 -93.34666442871092 L -61.13475799560547 -93.24157714843749 L -61.13566589355469 -93.24133300781249 L -61.294498443603516 -93.18399810791014 L -61.32866668701172 -93.17166900634764 L -61.439998626708984 -93.1315231323242 L -61.616188049316406 -93.06800079345702 L -61.66995620727539 -93.04861450195311 L -61.720664978027344 -93.03033447265624 L -61.90966796875 -92.94933319091795 L -62.292999267578125 -92.78466796874999 L -62.4640007019043 -92.70041656494139 L -62.771331787109375 -92.5490036010742 L -63.487998962402344 -92.19532012939452 L -63.5595703125 -92.16000366210936 L -63.64400100708008 -92.11833190917967 L -63.66347122192383 -92.16000366210936 L -64.19599914550781 -93.29966735839842 L -64.62036895751953 -94.20800018310545 L -65.2213363647461 -95.49433135986327 L -64.71233367919922 -95.75466918945311 L -63.77766799926758 -96.23266601562497 L -63.72260284423828 -96.25599670410153 L -63.51100158691406 -96.34566497802732 L -63.487998962402344 -96.35539245605466 L -62.985069274902344 -96.5681228637695 L -62.983001708984375 -96.5690002441406 L -62.69733428955078 -96.6679992675781 L -62.4640007019043 -96.74899291992185 L -62.13449478149414 -96.86336517333982 L -62.132667541503906 -96.86399841308591 L -61.82466506958008 -96.94132995605466 L -61.439998626708984 -97.03813171386716 L -61.21799850463867 -97.0940017700195 L -60.900665283203125 -97.140998840332 L -60.41600036621094 -97.21274566650388 L -60.27466583251953 -97.23366546630857 L -59.95199966430664 -97.24900054931638 L -59.391998291015625 -97.27539062499997 L -59.317718505859375 -97.27888488769528 L -59.31533432006836 -97.27899932861325 L -58.99333190917969 -97.26766967773435 L -58.36800003051758 -97.24603271484372 L -58.35733413696289 -97.24566650390622 L -58.06266784667969 -97.2113342285156 L -57.48375701904297 -97.14361572265622 L -57.4813346862793 -97.14333343505857 L -57.34400177001953 -97.11330413818357 L -57.209999084472656 -97.08399963378903 L -56.67733383178711 -96.96800231933591 L -56.42733383178711 -96.8796691894531 L -56.31999969482422 -96.84169006347653 L -55.939334869384766 -96.70700073242185 L -55.711334228515625 -96.5863342285156 L -55.29600143432617 -96.36615753173825 L -55.2686653137207 -96.35166931152341 M -57.257999420166016 -87.24999999999999 L -57.24966812133789 -87.36766815185545 L -57.249568939208984 -87.36996459960936 L -57.23800277709961 -87.6453399658203 L -57.23749542236328 -87.65743255615233 L -57.235755920410156 -87.6989059448242 L -57.23566818237305 -87.70099639892577 L -57.34400177001953 -87.69267272949217 L -57.55666732788086 -87.67633056640624 L -58.26806640625 -87.6262969970703 L -58.29600143432617 -87.62433624267577 L -58.36800003051758 -87.61883544921874 L -58.5359992980957 -87.60600280761717 L -59.02000045776367 -87.56933593749999 L -59.22566604614258 -87.5413360595703 L -59.391998291015625 -87.5184860229492 L -59.63710403442383 -87.48480987548827 L -59.64186096191406 -87.48415374755858 L -59.643001556396484 -87.48400115966795 L -59.661109924316406 -87.48007965087889 L -59.818668365478516 -87.4459991455078 L -60.17733383178711 -87.36933135986327 L -60.31533432006836 -87.32733154296874 L -60.41600036621094 -87.29659271240233 L -60.60133361816406 -87.23999786376952 L -60.663116455078125 -87.21195220947264 L -60.675537109375 -87.20631408691405 L -60.70633316040039 -87.1923370361328 L -60.92814636230469 -87.0913848876953 L -60.92900085449219 -87.09100341796874 L -60.952816009521484 -87.07525634765624 L -60.963134765625 -87.0684356689453 L -61.00613784790039 -87.04000091552733 L -61.009666442871094 -87.03766632080077 L -61.177425384521484 -86.92711639404295 L -61.18366622924805 -86.92299652099608 L -61.242332458496094 -86.86833190917967 L -61.37033462524414 -86.74833679199217 L -61.415000915527344 -86.68966674804686 L -61.439998626708984 -86.65678405761717 L -61.51416015625 -86.55922698974608 L -61.51433181762695 -86.55899810791014 L -61.53030014038086 -86.52799987792967 L -61.548667907714844 -86.49233245849608 L -61.6114387512207 -86.37064361572264 L -61.61159896850586 -86.37033843994139 L -61.624168395996094 -86.34596252441405 L -61.62466812133789 -86.34500122070311 L -61.650665283203125 -86.26366424560545 L -61.707332611083984 -86.08766937255858 L -61.720252990722656 -86.01599884033202 L -61.724998474121094 -85.98966979980467 L -61.76123809814453 -85.78476715087889 L -61.76166534423828 -85.78233337402342 L -61.763389587402344 -85.74986267089842 L -61.763587951660156 -85.74617767333983 L -61.767333984375 -85.67566680908202 L -61.779998779296875 -85.44899749755858 L -61.76166534423828 -85.26100158691405 L -61.735313415527344 -84.9919967651367 L -61.72421646118164 -84.87876129150389 L -61.723018646240234 -84.8665084838867 L -61.722999572753906 -84.86633300781249 L -61.680667877197266 -84.74966430664061 L -61.634971618652344 -84.62360382080077 L -61.634647369384766 -84.62270355224608 L -61.586666107177734 -84.49033355712889 L -61.5273323059082 -84.41566467285155 L -61.4832878112793 -84.36029052734374 L -61.4812126159668 -84.35768127441405 L -61.439998626708984 -84.3058624267578 L -61.39004135131836 -84.24304962158202 L -61.38999938964844 -84.2429962158203 L -61.30366516113281 -84.18566894531249 L -61.25613784790039 -84.15409088134764 L -61.109500885009766 -84.05666351318358 L -61.10900115966797 -84.05633544921874 L -60.9913330078125 -84.01667022705077 L -60.84756088256836 -83.96800231933592 L -60.733333587646484 -83.92933654785155 L -60.571998596191406 -83.91366577148436 L -60.53548049926758 -83.91015624999999 L -60.41600036621094 -83.89868164062499 L -60.232051849365234 -83.88100433349608 L -60.231998443603516 -83.88099670410155 L -60.20539474487305 -83.88243103027342 L -60.19756317138672 -83.88285827636717 L -60.09600067138672 -83.88833618164061 L -59.81339645385742 -83.90355682373045 L -59.81133270263672 -83.90366363525389 L -59.76137161254883 -83.91224670410155 L -59.6793327331543 -83.92633056640624 L -59.4340934753418 -83.96800231933592 L -59.404666900634766 -83.97299957275389 L -59.391998291015625 -83.97678375244139 L -59.37160110473633 -83.98287963867186 L -59.3629150390625 -83.98548126220702 L -59.28200149536133 -84.00966644287108 L -59.02763748168945 -84.08630371093749 L -59.025333404541016 -84.08699798583983 L -58.947635650634766 -84.12168884277342 L -58.913333892822266 -84.13700103759764 L -58.67733383178711 -84.24166870117186 L -58.58266830444336 -84.30200195312499 L -58.38066482543945 -84.43133544921874 L -58.36800003051758 -84.4425582885742 L -58.35708999633789 -84.4522247314453 L -58.2956657409668 -84.5066680908203 L -58.115665435791016 -84.66600036621092 L -58.07925796508789 -84.7084274291992 L -58.07448959350586 -84.71398162841795 L -58.0369987487793 -84.75766754150389 L -57.872032165527344 -84.95057678222655 L -57.871665954589844 -84.95099639892577 L -57.84586715698242 -84.9919967651367 L -57.84431457519531 -84.99446868896483 L -57.842376708984375 -84.99755096435545 L -57.8043327331543 -85.05799865722655 L -57.66233444213867 -85.28333282470702 L -57.609275817871094 -85.39892578124999 L -57.6063346862793 -85.40533447265624 L -57.48961639404297 -85.66065216064452 L -57.48899841308594 -85.66200256347655 L -57.44900131225586 -85.80699920654295 L -57.390995025634766 -86.01599884033202 L -57.3650016784668 -86.10966491699217 L -57.34400177001953 -86.2485885620117 L -57.3390007019043 -86.2816696166992 L -57.28590393066406 -86.63407897949217 L -57.285667419433594 -86.63566589355467 L -57.276668548583984 -86.83799743652342 L -57.267513275146484 -87.04000091552733 L -57.257999420166016 -87.24999999999999 M -68.23933410644531 -98.7919998168945 L -68.1363296508789 -98.51366424560544 L -68.05870819091797 -98.30400085449216 L -67.9356689453125 -97.97166442871091 L -67.87566375732422 -97.66366577148435 L -67.80097198486328 -97.27999877929685 L -67.75835418701172 -97.06110382080075 L -67.75833129882812 -97.06099700927732 L -67.73899841308594 -96.72699737548825 L -67.71171569824219 -96.25599670410153 L -67.70101928710938 -96.0712966918945 L -67.70099639892578 -96.07099914550778 L -67.71333312988281 -95.85199737548827 L -67.73733520507812 -95.42466735839842 L -67.77186584472656 -95.23200225830077 L -67.77532958984375 -95.21266937255858 L -67.84907531738281 -94.80210113525389 L -67.84933471679688 -94.80066680908202 L -67.91166687011719 -94.60366821289061 L -68.03299713134766 -94.21900177001952 L -68.03759002685547 -94.20800018310545 L -68.11166381835938 -94.03033447265624 L -68.2652359008789 -93.66402435302733 L -68.26566314697266 -93.66300201416014 L -68.3673324584961 -93.48466491699217 L -68.53848266601562 -93.18399810791014 L -68.56388092041016 -93.13938140869139 L -68.56466674804688 -93.13800048828124 L -68.60800170898438 -93.08033752441405 L -68.68966674804688 -92.97166442871092 L -68.9316635131836 -92.6490020751953 L -69.08399963378906 -92.50033569335936 L -69.37866973876953 -92.21299743652342 L -69.45008087158203 -92.16000366210936 L -69.54933166503906 -92.08633422851561 L -69.5809555053711 -92.06290435791014 L -69.63200378417969 -92.0250778198242 L -69.87884521484375 -91.84217834472655 L -69.88133239746094 -91.84033203124999 L -69.91098022460938 -91.82369995117186 L -69.9561538696289 -91.79834747314452 L -69.95636749267578 -91.79823303222655 L -69.97727966308594 -91.78649139404295 L -69.802001953125 -91.70566558837889 L -69.7058334350586 -91.6480026245117 L -69.63200378417969 -91.60372924804686 L -69.6163330078125 -91.59432983398436 L -69.25482940673828 -91.37729644775389 L -69.25433349609375 -91.37699890136717 L -69.0816650390625 -91.24433135986327 L -68.94058227539062 -91.13600158691405 L -68.7479019165039 -90.98805236816405 L -68.74566650390625 -90.98633575439452 L -68.60800170898438 -90.84523010253905 L -68.58533477783203 -90.82199859619139 L -68.27400207519531 -90.50399780273436 L -68.13899993896484 -90.31300354003905 L -67.99739837646484 -90.11199951171874 L -67.87947845458984 -89.9446334838867 L -67.87833404541016 -89.94300079345702 L -67.77266693115234 -89.73100280761717 L -67.58399963378906 -89.35366821289061 L -67.56666564941406 -89.31900024414061 L -67.48533630371094 -89.08200073242186 L -67.32752990722656 -88.62123870849608 L -67.32733154296875 -88.62066650390624 L -67.2796630859375 -88.3583297729492 L -67.22608184814453 -88.06400299072264 L -67.18633270263672 -87.84566497802733 L -67.1709976196289 -87.56300354003905 L -67.1426773071289 -87.04000091552733 L -67.14099884033203 -87.00900268554686 L -67.14099884033203 -87.00900268554686 L -67.16033172607422 -86.68000030517577 L -67.19827270507812 -86.0343780517578 L -67.19833374023438 -86.03333282470702 L -67.20161437988281 -86.01599884033202 L -67.25733184814453 -85.7220001220703 L -67.37266540527344 -85.11199951171874 L -67.41410064697266 -84.9919967651367 L -67.47200012207031 -84.82433319091795 L -67.58399963378906 -84.50061035156249 L -67.66666412353516 -84.26166534423827 L -67.7979965209961 -83.99900054931639 L -67.81352233886719 -83.96800231933592 L -68.05498504638672 -83.48569488525389 L -68.05533599853516 -83.48500061035155 L -68.22233581542969 -83.24633026123045 L -68.43370819091797 -82.94400024414061 L -68.54766845703125 -82.78099822998045 L -68.74966430664062 -82.56933593749999 L -69.14257049560547 -82.15781402587889 L -69.14366912841797 -82.1566696166992 L -69.38099670410156 -81.97633361816405 L -69.45500946044922 -81.9199981689453 L -69.63200378417969 -81.78528594970702 L -69.8435287475586 -81.62427520751952 L -69.84432983398438 -81.62366485595702 L -70 -81.53688049316405 L -70.10800170898438 -81.47666931152342 L -70.27999877929688 -81.3806686401367 L -70.6240005493164 -81.18866729736327 L -70.65599822998047 -81.1758346557617 L -70.91500091552734 -81.07199859619139 L -71.48611450195312 -80.84342193603514 L -71.48633575439453 -80.84333038330077 L -71.68000030517578 -80.7937774658203 L -71.79766845703125 -80.76366424560545 L -72.40930938720703 -80.60709381103514 L -72.40966796875 -80.60700225830077 L -72.7040023803711 -80.56537628173827 L -72.74199676513672 -80.55999755859374 L -73.39666748046875 -80.46733093261717 L -73.72799682617188 -80.45302581787108 L -73.74400329589844 -80.45233154296874 L -74.43199920654297 -80.42299652099608 L -77.8239974975586 -80.42299652099608 L -81.85800170898438 -80.42299652099608 L -81.85800170898438 -81.9199981689453 L -81.85800170898438 -84.30400085449217 L -81.85800170898438 -84.60176849365233 L -81.85800170898438 -84.99999999999999 L -81.85800170898438 -86.01599884033202 L -81.85800170898438 -90.11199951171874 L -81.85800170898438 -93.60399627685545 L -81.85800170898438 -93.90176391601561 L -81.85800170898438 -94.20800018310545 L -81.85800170898438 -98.05799865722653 L -81.85800170898438 -98.30400085449216 L -81.85800170898438 -101.95866394042966 L -77.8239974975586 -101.95866394042966 L -75.7760009765625 -101.95866394042966 L -75.59833526611328 -101.95866394042966 L -75.21299743652344 -101.94799804687497 L -74.75199890136719 -101.93517303466794 L -74.44633483886719 -101.9266662597656 L -74.08466339111328 -101.89366912841794 L -73.72799682617188 -101.86081695556638 L -73.36866760253906 -101.82772827148435 L -73.36799621582031 -101.8276672363281 L -73.03500366210938 -101.77166748046872 L -72.37828063964844 -101.66132354736325 L -72.37633514404297 -101.66100311279294 L -72.06900024414062 -101.58366394042966 L -71.68000030517578 -101.48598480224607 L -71.46366882324219 -101.43166351318357 L -71.31769561767578 -101.37599945068357 L -71.18133544921875 -101.32399749755857 L -70.65599822998047 -101.12360382080075 L -70.62733459472656 -101.11266326904294 L -70.37266540527344 -100.97200012207028 L -70 -100.76612854003903 L -69.87666320800781 -100.69799804687497 L -69.6500015258789 -100.51633453369138 L -69.63200378417969 -100.50189971923825 L -69.4450454711914 -100.35199737548825 L -69.20933532714844 -100.16300201416013 L -69.02200317382812 -99.94499969482419 L -68.65999603271484 -99.52310943603513 L -68.65933227539062 -99.52233123779294 L -68.60800170898438 -99.43298339843747 L -68.54769134521484 -99.32800292968747 L -68.51667022705078 -99.27400207519528 L -68.23947143554688 -98.79223632812497 L -68.23933410644531 -98.7919998168945 M -73.5556640625 -97.89033508300778 L -73.72799682617188 -97.92772674560544 L -73.90263366699219 -97.96562194824216 L -73.90937042236328 -97.96707916259763 L -74.19152069091797 -98.02830505371091 L -74.19166564941406 -98.02833557128903 L -74.61566925048828 -98.05300140380857 L -74.70153045654297 -98.05799865722653 L -75.47433471679688 -98.10299682617185 L -75.7760009765625 -98.10299682617185 L -77.64199829101562 -98.10299682617185 L -77.64199829101562 -98.05799865722653 L -77.64199829101562 -96.25599670410153 L -77.64199829101562 -94.20800018310545 L -77.64199829101562 -93.90176391601561 L -77.64199829101562 -93.60399627685545 L -77.64199829101562 -93.5586700439453 L -75.7760009765625 -93.5586700439453 L -75.18499755859375 -93.5586700439453 L -75.18266296386719 -93.5586700439453 L -74.95600128173828 -93.56566619873045 L -74.75199890136719 -93.57189941406249 L -74.49908447265625 -93.57963562011717 L -74.49800109863281 -93.5796661376953 L -74.40157318115234 -93.58963775634764 L -74.39115142822266 -93.59071350097655 L -74.31099700927734 -93.59899902343749 L -73.92900085449219 -93.63833618164061 L -73.7770004272461 -93.6689987182617 L -73.72799682617188 -93.67890167236327 L -73.46493530273438 -93.73207855224608 L -73.46366882324219 -93.73233032226561 L -73.39835357666016 -93.7533493041992 L -73.39559173583984 -93.75424194335936 L -73.33833312988281 -93.77266693115233 L -73.07643127441406 -93.85663604736327 L -73.07633209228516 -93.85666656494139 L -73.0252914428711 -93.88097381591795 L -72.97833251953125 -93.90333557128905 L -72.76984405517578 -94.00258636474608 L -72.76966857910156 -94.00267028808592 L -72.7040023803711 -94.04801177978514 L -72.6953353881836 -94.05400085449217 L -72.53399658203125 -94.1653366088867 L -72.53395080566406 -94.16538238525389 L -72.52560424804688 -94.17367553710936 L -72.49108123779297 -94.20800018310545 L -72.48463439941406 -94.21441650390624 L -72.47666931152344 -94.22233581542967 L -72.3499984741211 -94.34833526611327 L -72.34904479980469 -94.3496856689453 L -72.34769439697266 -94.35160827636717 L -72.30400085449219 -94.41366577148436 L -72.20266723632812 -94.55766296386717 L -72.2000503540039 -94.56329345703124 L -72.19731903076172 -94.5691680908203 L -72.16766357421875 -94.63300323486327 L -72.10543823242188 -94.76712036132811 L -72.10308074951172 -94.77219390869139 L -72.09033203125 -94.79965972900389 L -72.09033203125 -94.79966735839842 L -72.06500244140625 -94.89600372314452 L -72.01100158691406 -95.10133361816405 L -71.99366760253906 -95.22366333007811 L -71.99248504638672 -95.23200225830077 L -71.957763671875 -95.47763061523436 L -71.9576644897461 -95.47833251953124 L -71.95240783691406 -95.59872436523436 L -71.95238494873047 -95.59927368164061 L -71.9520034790039 -95.60800170898436 L -71.94000244140625 -95.87933349609374 L -71.97000122070312 -96.1323318481445 L -71.98468017578125 -96.25599670410153 L -72.01469421386719 -96.508918762207 L -72.0150375366211 -96.51179504394528 L -72.03258514404297 -96.6596755981445 L -72.03266906738281 -96.66033172607419 L -72.10433197021484 -96.82033538818357 L -72.21017456054688 -97.05735015869138 L -72.26033020019531 -97.16967010498044 L -72.37232208251953 -97.27999877929685 L -72.37333679199219 -97.28099822998044 L -72.523681640625 -97.42893981933591 L -72.5261459350586 -97.43136596679685 L -72.62333679199219 -97.52700042724607 L -72.7040023803711 -97.56544494628903 L -72.82266998291016 -97.62200164794919 L -73.06804656982422 -97.73870086669919 L -73.07002258300781 -97.73963928222653 L -73.24525451660156 -97.82298278808591 L -73.24600219726562 -97.82333374023435 L -73.5556640625 -97.89033508300778 M -72.92433166503906 -89.37533569335936 L -73.21033477783203 -89.47666931152342 L -73.32307434082031 -89.50362396240233 L -73.33855438232422 -89.50733184814452 L -73.37899780273438 -89.51699829101561 L -73.7252426147461 -89.59940338134764 L -73.72633361816406 -89.59967041015624 L -73.72799682617188 -89.59987640380858 L -73.81830596923828 -89.61114501953124 L -73.8307113647461 -89.61269378662108 L -73.92666625976562 -89.62466430664061 L -74.33599853515625 -89.67600250244139 L -74.5770034790039 -89.68499755859374 L -74.75199890136719 -89.69144439697264 L -75.06566619873047 -89.70300292968749 L -75.7760009765625 -89.70300292968749 L -77.59700012207031 -89.70300292968749 L -77.64199829101562 -89.70300292968749 L -77.64199829101562 -88.06400299072264 L -77.64199829101562 -86.01599884033202 L -77.64199829101562 -84.99999999999999 L -77.64199829101562 -84.60176849365233 L -77.64199829101562 -84.30400085449217 L -77.64199829101562 -84.25866699218749 L -75.7760009765625 -84.25866699218749 L -74.91922760009766 -84.25866699218749 L -74.90799713134766 -84.25866699218749 L -74.6806640625 -84.26833343505858 L -74.6744155883789 -84.26858520507811 L -74.66925048828125 -84.26879882812499 L -74.22000122070312 -84.28700256347655 L -74.03166961669922 -84.31333160400389 L -73.72799682617188 -84.35619354248045 L -73.64564514160156 -84.36781311035155 L -73.64433288574219 -84.3679962158203 L -73.51264190673828 -84.40286254882811 L -73.50907897949219 -84.40380096435545 L -73.48566436767578 -84.41000366210936 L -73.15699768066406 -84.49666595458983 L -73.04515838623047 -84.5414581298828 L -73.0296630859375 -84.54766845703124 L -72.76366424560547 -84.65433502197264 L -72.7040023803711 -84.68915557861327 L -72.68599700927734 -84.6996612548828 L -72.68479919433594 -84.70035552978514 L -72.66200256347656 -84.71366882324217 L -72.44733428955078 -84.83954620361327 L -72.44599914550781 -84.84033203124999 L -72.3923568725586 -84.88521575927733 L -72.38668060302734 -84.8899688720703 L -72.36433410644531 -84.90866851806639 L -72.2642593383789 -84.9919967651367 L -72.25464630126953 -84.99999999999999 L -72.18978881835938 -85.0540084838867 L -72.18900299072266 -85.05466461181639 L -72.17848205566406 -85.06707763671874 L -72.1671142578125 -85.08049011230467 L -72.1259994506836 -85.12899780273436 L -71.98933410644531 -85.28966522216795 L -71.97816467285156 -85.30814361572264 L -71.93733215332031 -85.3756637573242 L -71.82599639892578 -85.56099700927733 L -71.78433227539062 -85.66266632080077 L -71.69633483886719 -85.87866973876952 L -71.68000030517578 -85.94171905517577 L -71.66533660888672 -85.99833679199217 L -71.66071319580078 -86.01599884033202 L -71.60523986816406 -86.22829437255858 L -71.60244750976562 -86.23897552490233 L -71.5999984741211 -86.24833679199217 L -71.58032989501953 -86.38266754150389 L -71.53984069824219 -86.65949249267577 L -71.53966522216797 -86.66066741943358 L -71.53299713134766 -86.80699920654295 L -71.52220153808594 -87.04000091552733 L -71.51957702636719 -87.09651947021483 L -71.51914978027344 -87.10577392578124 L -71.51899719238281 -87.10900115966795 L -71.52532958984375 -87.24166870117186 L -71.53815460205078 -87.50646209716795 L -71.53861999511719 -87.51603698730467 L -71.53866577148438 -87.51699829101561 L -71.55766296386719 -87.63833618164061 L -71.59766387939453 -87.89099884033202 L -71.62699890136719 -87.99666595458983 L -71.64569091796875 -88.06400299072264 L -71.68000030517578 -88.18758392333983 L -71.68871307373047 -88.21897125244139 L -71.68900299072266 -88.22000122070311 L -71.70183563232422 -88.24810791015624 L -71.70269775390625 -88.24999999999999 L -71.72766876220703 -88.30466461181639 L -71.810546875 -88.48700714111327 L -71.81099700927734 -88.48799896240233 L -71.82390594482422 -88.50678253173827 L -71.82511901855469 -88.50854492187499 L -71.86299896240234 -88.56366729736327 L -71.97566986083984 -88.72833251953124 L -71.98550415039062 -88.73854827880858 L -72.04499816894531 -88.80033111572264 L -72.19369506835938 -88.95365142822264 L -72.19499969482422 -88.95500183105467 L -72.2786636352539 -89.01833343505858 L -72.37018585205078 -89.08799743652342 L -72.45733642578125 -89.15433502197264 L -72.50365447998047 -89.1786651611328 L -72.50531768798828 -89.17954254150389 L -72.56266784667969 -89.20966339111327 L -72.7040023803711 -89.28369903564452 L -72.78404998779297 -89.32563018798827 L -72.78666687011719 -89.32700347900389 L -72.79800415039062 -89.33097839355467 L -72.81249237060547 -89.33606719970702 L -72.92433166503906 -89.37533569335936 M -70.27999877929688 -79.99999999999999 L -70.27999877929688 -77.83999633789061 L -81.91999816894531 -77.83999633789061 L -83.4000015258789 -77.83999633789061 L -83.4000015258789 -77.82399749755858 L -83.4000015258789 -75.19999694824217 L -84.36000061035156 -75.19999694824217 L -85.25454711914062 -77.82399749755858 L -85.26000213623047 -77.83999633789061 L -86.01599884033203 -77.83999633789061 L -86.55999755859375 -77.83999633789061 L -87.46700286865234 -77.8730010986328 L -88.26699829101562 -77.97299957275389 L -88.95999908447266 -78.13999938964842 L -89.55599975585938 -78.37100219726561 L -90.06199645996094 -78.66400146484374 L -90.11199951171875 -78.70658111572264 L -90.4800033569336 -79.01999664306639 L -90.8290023803711 -79.4240036010742 L -91.10199737548828 -79.89099884033202 L -91.30000305175781 -80.4199981689453 L -91.43299865722656 -81.00399780273436 L -91.51300048828125 -81.63800048828124 L -91.52416229248047 -81.9199981689453 L -91.54000091552734 -82.3199996948242 L -91.52200317382812 -82.83999633789061 L -91.46900177001953 -83.33300018310545 L -91.37999725341797 -83.8000030517578 L -91.26899719238281 -84.22699737548827 L -91.14900207519531 -84.62699890136717 L -91.0199966430664 -84.99999999999999 L -90.11199951171875 -84.69733428955077 L -89.789794921875 -84.58992767333983 L -89.55986022949219 -84.51329040527342 L -89.40471649169922 -84.46157073974608 L -89.27482604980469 -84.41827392578124 L -89.17282104492188 -84.38427734374999 L -89.14903259277344 -84.37634277343749 L -89.11653900146484 -84.36551666259764 L -89.0999984741211 -84.36000061035155 L -89.19999694824219 -84.0709991455078 L -89.28700256347656 -83.76399993896483 L -89.36000061035156 -83.44000244140624 L -89.427001953125 -83.10199737548827 L -89.46700286865234 -82.75599670410155 L -89.4800033569336 -82.40000152587889 L -89.46700286865234 -82.05599975585936 L -89.44967651367188 -81.9199981689453 L -89.427001953125 -81.7419967651367 L -89.36000061035156 -81.45999908447264 L -89.24700164794922 -81.22000122070311 L -89.09300231933594 -81.00700378417967 L -88.9000015258789 -80.8199996948242 L -88.66000366210938 -80.66000366210936 L -88.36699676513672 -80.52700042724608 L -88.0199966430664 -80.4199981689453 L -87.61100006103516 -80.35299682617186 L -87.13099670410156 -80.31300354003905 L -86.58000183105469 -80.3000030517578 L -86.01599884033203 -80.3000030517578 L -85.18000030517578 -80.3000030517578 L -85.18000030517578 -81.9199981689453 L -85.18000030517578 -83.63999938964842 L -83.4000015258789 -83.63999938964842 L -83.4000015258789 -81.9199981689453 L -83.4000015258789 -80.3000030517578 L -82 -80.3000030517578 L -81.91999816894531 -80.3000030517578 L -77.8239974975586 -80.3000030517578 L -73.72799682617188 -80.3000030517578 L -72.7040023803711 -80.3000030517578 L -72.13238525390625 -80.3000030517578 L -72.13042449951172 -80.3000030517578 L -71.68000030517578 -80.3000030517578 L -70.65599822998047 -80.3000030517578 L -70.27999877929688 -80.3000030517578 L -70.27999877929688 -79.99999999999999 M -70.89800262451172 -70.2220001220703 L -70.58983612060547 -69.63200378417967 L -70.5 -69.45999908447264 L -70.22200012207031 -68.62400054931639 L -70.05599975585938 -67.71800231933592 L -70 -66.73999786376952 L -70.00910186767578 -66.59403228759764 L -70.05599975585938 -65.84200286865233 L -70.11554718017578 -65.53600311279295 L -70.22200012207031 -64.98899841308592 L -70.5 -64.18000030517577 L -70.89800262451172 -63.42900085449217 L -71.39800262451172 -62.74900054931639 L -72 -62.13999938964842 L -72.70700073242188 -61.609001159667955 L -73.5199966430664 -61.16199874877928 L -73.72799682617188 -61.080158233642564 L -74.44000244140625 -60.79999923706053 L -75.4469985961914 -60.53300094604491 L -76.5469970703125 -60.3730010986328 L -77.73999786376953 -60.319999694824205 L -78.9219970703125 -60.36899948120116 L -80.01599884033203 -60.51599884033202 L -81.0199966430664 -60.75999832153319 L -81.91799926757812 -61.109001159667955 L -81.91999816894531 -61.110080718994126 L -82.71800231933594 -61.54199981689452 L -83.41999816894531 -62.060001373291 L -84.03099822998047 -62.66199874877928 L -84.53099822998047 -63.348999023437486 L -84.91999816894531 -64.12000274658202 L -85.20899963378906 -64.95600128173827 L -85.2789535522461 -65.32232666015624 L -85.31974792480469 -65.53600311279295 L -85.38200378417969 -65.86199951171874 L -85.44000244140625 -66.83999633789061 L -85.38200378417969 -67.73799896240233 L -85.20899963378906 -68.59100341796874 L -84.91999816894531 -69.40000152587889 L -84.53099822998047 -70.15100097656249 L -84.03099822998047 -70.83100128173827 L -83.89542388916016 -70.96613311767577 L -83.41999816894531 -71.44000244140624 L -82.73929595947266 -71.9548873901367 L -82.71800231933594 -71.9710006713867 L -81.91999816894531 -72.41688537597655 L -81.91799926757812 -72.41799926757811 L -81.0199966430664 -72.77999877929686 L -80.01599884033203 -73.05799865722655 L -78.9219970703125 -73.22399902343749 L -77.73999786376953 -73.27999877929686 L -76.5469970703125 -73.22899627685545 L -75.4469985961914 -73.07599639892577 L -75.13983917236328 -72.99791717529295 L -74.44000244140625 -72.8199996948242 L -73.72799682617188 -72.54990386962889 L -73.5199966430664 -72.4710006713867 L -72.70700073242188 -72.03800201416014 L -72 -71.51999664306639 L -71.39800262451172 -70.90899658203124 L -70.89800262451172 -70.2220001220703 M -70.5 -53.4199981689453 L -70.44280242919922 -53.2480010986328 L -70.22200012207031 -52.58399963378905 L -70.05599975585938 -51.67800140380858 L -70 -50.70000076293944 L -70.00910186767578 -50.5540313720703 L -70.05599975585938 -49.80199813842772 L -70.1824951171875 -49.15200042724608 L -70.22200012207031 -48.949001312255845 L -70.5 -48.13999938964842 L -70.89800262451172 -47.38899993896484 L -71.39800262451172 -46.708999633789055 L -72 -46.09999847412109 L -72.70700073242188 -45.56900024414062 L -73.5199966430664 -45.12200164794921 L -73.72799682617188 -45.04015731811523 L -74.44000244140625 -44.759998321533196 L -75.4469985961914 -44.49300003051757 L -76.5469970703125 -44.33300018310546 L -77.73999786376953 -44.27999877929687 L -78.9219970703125 -44.32899856567382 L -80.01599884033203 -44.476001739501946 L -81.0199966430664 -44.72000122070312 L -81.91799926757812 -45.06900024414062 L -81.91999816894531 -45.070083618164055 L -82.71800231933594 -45.50199890136718 L -83.41999816894531 -46.020000457763665 L -84.03099822998047 -46.62200164794921 L -84.53099822998047 -47.30899810791015 L -84.91999816894531 -48.08000183105467 L -85.20899963378906 -48.91600036621092 L -85.25406646728516 -49.15200042724608 L -85.38200378417969 -49.82199859619139 L -85.44000244140625 -50.79999923706053 L -85.38200378417969 -51.69800186157225 L -85.20899963378906 -52.550998687744126 L -84.97005462646484 -53.21989059448241 L -84.91999816894531 -53.36000061035155 L -84.53099822998047 -54.11100006103514 L -84.03099822998047 -54.79100036621092 L -83.89542388916016 -54.92613601684569 L -83.41999816894531 -55.40000152587889 L -82.73929595947266 -55.914890289306626 L -82.71800231933594 -55.93099975585936 L -81.91999816894531 -56.37688064575194 L -81.91799926757812 -56.37799835205077 L -81.0199966430664 -56.74000167846678 L -80.01599884033203 -57.01800155639647 L -78.9219970703125 -57.18399810791014 L -77.73999786376953 -57.24000167846678 L -76.5469970703125 -57.188999176025376 L -75.4469985961914 -57.03599929809569 L -75.13983917236328 -56.957912445068345 L -74.44000244140625 -56.77999877929686 L -73.72799682617188 -56.50990295410155 L -73.5199966430664 -56.43099975585936 L -72.70700073242188 -55.9980010986328 L -72 -55.479999542236314 L -71.39800262451172 -54.86899948120116 L -70.89800262451172 -54.181999206542955 L -70.5 -53.4199981689453 M -70.19599914550781 -37.11800003051757 L -70.16561126708984 -36.86399841308593 L -70.12899780273438 -36.557998657226555 L -70.08000183105469 -35.97999954223632 L -70.03600311279297 -35.38000106811523 L -70.00900268554688 -34.752998352050774 L -70 -34.09999847412109 L -70.0757827758789 -32.76800155639648 L -70.0780029296875 -32.72900009155273 L -70.31099700927734 -31.46899986267089 L -70.69999694824219 -30.31999969482421 L -71.24700164794922 -29.28400039672851 L -71.927001953125 -28.364000320434563 L -72.73999786376953 -27.559999465942376 L -73.51280975341797 -26.997587203979485 L -73.68399810791016 -26.872999191284173 L -73.72799682617188 -26.84981155395507 L -74.75800323486328 -26.30699920654296 L -75.95999908447266 -25.860000610351555 L -77.26899719238281 -25.538000106811516 L -77.35215759277344 -25.526638031005852 L -77.8239974975586 -25.462175369262688 L -78.68900299072266 -25.34399986267089 L -80.22000122070312 -25.2800006866455 L -81.72000122070312 -25.350999832153313 L -81.91999816894531 -25.38127708435058 L -83.12699890136719 -25.563999176025384 L -84.44000244140625 -25.920000076293938 L -85.63099670410156 -26.413000106811516 L -86.01599884033203 -26.639236450195305 L -86.697998046875 -27.040000915527337 L -87.63999938964844 -27.79999923706054 L -88.4530029296875 -28.680000305175774 L -89.13300323486328 -29.693000793457024 L -89.68000030517578 -30.840000152587884 L -90.08000183105469 -32.0979995727539 L -90.11199951171875 -32.28106689453124 L -90.19711303710938 -32.76800155639648 L -90.31999969482422 -33.47100067138671 L -90.4000015258789 -34.95999908447265 L -90.36699676513672 -35.9469985961914 L -90.26699829101562 -36.90700149536132 L -90.11199951171875 -37.772956848144524 L -90.0999984741211 -37.84000015258788 L -89.86900329589844 -38.74000167846679 L -89.57599639892578 -39.59999847412109 L -89.22000122070312 -40.419998168945305 L -87.25007629394531 -39.542488098144524 L -87.1829833984375 -39.51259994506835 L -87.13258361816406 -39.49015045166015 L -87.0938491821289 -39.47289657592773 L -87.05911254882812 -39.45742034912109 L -87.03479766845703 -39.44659423828124 L -87.0199966430664 -39.43999862670898 L -87.1760025024414 -39.11100006103515 L -87.3219985961914 -38.76399993896484 L -87.45999908447266 -38.4000015258789 L -87.58899688720703 -38.02199935913085 L -87.70899963378906 -37.636001586914055 L -87.81999969482422 -37.24000167846679 L -87.91307067871094 -36.86399841308593 L -87.91999816894531 -36.83599853515624 L -88.00700378417969 -36.42200088500976 L -88.08000183105469 -35.99999999999999 L -88.1240005493164 -35.5870018005371 L -88.1510009765625 -35.17300033569335 L -88.16000366210938 -34.759998321533196 L -88.0999984741211 -33.695999145507805 L -87.92955017089844 -32.76800155639648 L -87.91999816894531 -32.71599960327148 L -87.62000274658203 -31.81999969482421 L -87.19599914550781 -31.024000167846673 L -86.66899871826172 -30.318000793457024 L -86.04000091552734 -29.700000762939446 L -86.01599884033203 -29.682889938354485 L -85.2979965209961 -29.170999526977532 L -84.45800018310547 -28.731000900268548 L -83.5199966430664 -28.379999160766594 L -82.49299621582031 -28.135999679565423 L -81.91999816894531 -28.059841156005852 L -81.38700103759766 -27.989000320434563 L -80.19999694824219 -27.94000053405761 L -79.04900360107422 -27.98200035095214 L -77.96900177001953 -28.10899925231933 L -77.8239974975586 -28.139322280883782 L -76.95999908447266 -28.31999969482421 L -76.03099822998047 -28.61100006103515 L -75.19100189208984 -29.003999710083 L -74.44000244140625 -29.499999999999993 L -73.78700256347656 -30.08900070190429 L -73.72799682617188 -30.164503097534173 L -73.23999786376953 -30.78899955749511 L -72.80000305175781 -31.60000038146972 L -72.47799682617188 -32.51300048828124 L -72.4301528930664 -32.76800155639648 L -72.28399658203125 -33.54700088500976 L -72.22000122070312 -34.700000762939446 L -72.22200012207031 -35.07799911499023 L -72.22899627685547 -35.43799972534179 L -72.23999786376953 -35.77999877929687 L -72.26899719238281 -36.10400009155273 L -72.302001953125 -36.410999298095696 L -72.33999633789062 -36.700000762939446 L -72.36402893066406 -36.86399841308593 L -72.37999725341797 -36.9729995727539 L -72.39700317382812 -37.08349990844726 L -72.41999816894531 -37.23300170898437 L -72.44931030273438 -37.41397857666015 L -72.45999908447266 -37.47999954223632 L -72.51100158691406 -37.72900009155273 L -72.55799865722656 -37.969001770019524 L -72.5999984741211 -38.200000762939446 L -73.72799682617188 -38.200000762939446 L -78.5199966430664 -38.200000762939446 L -78.5199966430664 -34.180000305175774 L -80.76000213623047 -34.180000305175774 L -80.76000213623047 -40.74000167846679 L -78.5199966430664 -40.74000167846679 L -73.72799682617188 -40.74000167846679 L -71 -40.74000167846679 L -70.84700012207031 -40.23300170898437 L -70.70700073242188 -39.72700119018554 L -70.58000183105469 -39.22000122070312 L -70.45800018310547 -38.708999633789055 L -70.36011505126953 -38.200000762939446 L -70.35800170898438 -38.18899917602538 L -70.27999877929688 -37.6599998474121 L -70.19599914550781 -37.11800003051757 M -74.57599639892578 -70.31099700927733 L -76.00199890136719 -70.6179962158203 L -77.73999786376953 -70.72000122070311 L -79.4729995727539 -70.6179962158203 L -80.88700103759766 -70.31099700927733 L -81.91999816894531 -69.82804870605467 L -81.9800033569336 -69.8000030517578 L -82.75800323486328 -69.04699707031249 L -83.2239990234375 -68.04000091552733 L -83.37999725341797 -66.77999877929686 L -83.2268295288086 -65.53600311279295 L -83.2239990234375 -65.51300048828124 L -82.75800323486328 -64.51300048828124 L -81.9800033569336 -63.77999877929686 L -81.91999816894531 -63.75194931030272 L -80.88700103759766 -63.269001007080064 L -79.4729995727539 -62.962001800537095 L -77.73999786376953 -62.86000061035155 L -76.00199890136719 -62.962001800537095 L -74.57599639892578 -63.269001007080064 L -73.72799682617188 -63.657287597656236 L -73.45999908447266 -63.77999877929686 L -72.6709976196289 -64.53299713134764 L -72.19988250732422 -65.53600311279295 L -72.197998046875 -65.54000091552733 L -72.04000091552734 -66.8000030517578 L -72.197998046875 -68.06700134277342 L -72.6709976196289 -69.06700134277342 L -73.27916717529297 -69.63200378417967 L -73.45999908447266 -69.8000030517578 L -73.72799682617188 -69.92271423339842 L -74.57599639892578 -70.31099700927733 M -74.57599639892578 -54.27099990844725 L -76.00199890136719 -54.57799911499022 L -77.73999786376953 -54.68000030517577 L -79.4729995727539 -54.57799911499022 L -80.88700103759766 -54.27099990844725 L -81.91999816894531 -53.788051605224595 L -81.9800033569336 -53.75999832153319 L -82.75800323486328 -53.00699996948241 L -83.2239990234375 -51.999999999999986 L -83.37999725341797 -50.74000167846678 L -83.2239990234375 -49.47299957275389 L -83.07441711425781 -49.15200042724608 L -82.75800323486328 -48.47299957275389 L -81.9800033569336 -47.74000167846679 L -81.91999816894531 -47.71194839477538 L -80.88700103759766 -47.22900009155273 L -79.4729995727539 -46.92200088500976 L -77.73999786376953 -46.81999969482421 L -76.00199890136719 -46.92200088500976 L -74.57599639892578 -47.22900009155273 L -73.72799682617188 -47.6172866821289 L -73.45999908447266 -47.74000167846679 L -72.6709976196289 -48.493000030517564 L -72.36145782470703 -49.15200042724608 L -72.197998046875 -49.499999999999986 L -72.04000091552734 -50.75999832153319 L -72.197998046875 -52.02700042724608 L -72.6709976196289 -53.02700042724608 L -72.90888214111328 -53.2480010986328 L -73.45999908447266 -53.75999832153319 L -73.72799682617188 -53.88271331787108 L -74.57599639892578 -54.27099990844725 z" fill="none" stroke="rgb(255,0,0)" stroke-width="0.001mm" />
</svg>